<svg version="1.1" id="Layer_1" xmlns="http://www.w3.org/2000/svg" xmlns:xlink="http://www.w3.org/1999/xlink" x="0px" y="0px"
	 width="100%" viewBox="0 0 1024 1024" enable-background="new 0 0 1024 1024" xml:space="preserve">

<path fill="#816AC3" opacity="1.000000" stroke="none" 
	d="
M329.294922,494.390137 
	C345.098724,396.453217 360.695221,298.909271 376.318115,201.200195 
	C467.793610,201.200195 559.077271,201.200195 651.023254,201.200195 
	C652.907776,214.036896 654.733154,226.890625 656.694153,239.723633 
	C659.181580,256.001221 661.737610,272.268616 664.337402,288.528656 
	C670.194214,325.159515 676.119873,361.779388 681.973389,398.410767 
	C688.801392,441.140503 695.558167,483.881622 702.390564,526.610657 
	C709.514099,571.161133 716.886536,615.673401 723.672485,660.274963 
	C724.962708,668.755005 724.074829,677.573853 724.102478,686.236755 
	C724.146118,699.898499 724.114136,713.560486 724.114136,727.610962 
	C669.185486,727.610962 614.452820,727.610962 558.840210,727.610962 
	C555.810364,692.733521 552.762451,657.649231 549.691406,622.297974 
	C525.636230,622.297974 501.870453,622.297974 477.537720,622.297974 
	C474.058502,657.306213 470.573578,692.371887 467.062012,727.705505 
	C412.425812,727.705505 358.012634,727.705505 303.266327,727.705505 
	C303.175354,726.207703 303.012390,724.763916 303.011230,723.320007 
	C302.994537,702.820007 302.571350,682.307129 303.186615,661.825623 
	C303.479462,652.077087 305.653076,642.371643 307.166870,632.676697 
	C309.004456,620.908386 311.037109,609.170471 312.999756,597.421814 
	C314.962952,585.669983 317.002747,573.930664 318.899902,562.168213 
	C320.670624,551.189575 322.262512,540.182129 323.999054,529.197815 
	C325.603363,519.049805 327.312958,508.918457 328.926208,498.771851 
	C329.133728,497.466705 329.041138,496.113831 329.294922,494.390137 
M525.000488,359.462402 
	C524.178406,351.067932 523.356384,342.673462 522.524414,334.177124 
	C516.396240,334.177124 510.769409,334.177124 504.632019,334.177124 
	C499.653839,386.059967 494.688049,437.813568 489.699921,489.800079 
	C505.819305,489.800079 521.225464,489.800079 536.921021,489.800079 
	C532.930908,446.429291 528.972595,403.404846 525.000488,359.462402 
z"/>
</svg>